<?xml version="1.0" standalone="no"?><!DOCTYPE svg PUBLIC "-//W3C//DTD SVG 1.1//EN" "http://www.w3.org/Graphics/SVG/1.1/DTD/svg11.dtd"><svg t="1581251171548" class="icon" viewBox="0 0 1024 1024" version="1.1" xmlns="http://www.w3.org/2000/svg" p-id="2126" xmlns:xlink="http://www.w3.org/1999/xlink" width="32" height="32"><defs><style type="text/css"></style></defs><path d="M621.714286 512 1002.057143 131.657143c29.257143-29.257143 29.257143-80.457143 0-109.714286-29.257143-29.257143-80.457143-29.257143-109.714286 0L512 402.285714 131.657143 21.942857c-29.257143-29.257143-80.457143-29.257143-109.714286 0-29.257143 29.257143-29.257143 80.457143 0 109.714286L402.285714 512 21.942857 892.342857c-29.257143 29.257143-29.257143 80.457143 0 109.714286 29.257143 29.257143 80.457143 29.257143 109.714286 0L512 621.714286l380.342857 380.342857c29.257143 29.257143 80.457143 29.257143 109.714286 0 29.257143-29.257143 29.257143-80.457143 0-109.714286L621.714286 512z" p-id="2127"></path></svg>